0
SECTION
2
HEADER
9
$INSUNITS
70
4
9
$ACADVER
1
AC1014
9
$HANDSEED
5
FFFF
0
ENDSEC
0
SECTION
2
TABLES
0
TABLE
2
VPORT
5
8
100
AcDbSymbolTable
0
ENDTAB
0
TABLE
2
LTYPE
5
5
100
AcDbSymbolTable
0
LTYPE
5
14
100
AcDbSymbolTableRecord
100
AcDbLinetypeTableRecord
2
BYBLOCK
70
0
0
LTYPE
5
15
100
AcDbSymbolTableRecord
100
AcDbLinetypeTableRecord
2
BYLAYER
70
0
0
ENDTAB
0
TABLE
2
LAYER
5
2
100
AcDbSymbolTable
70
2
0
LAYER
5
50
100
AcDbSymbolTableRecord
100
AcDbLayerTableRecord
2
0
70
0
6
CONTINUOUS
0
ENDTAB
0
TABLE
2
STYLE
5
3
100
AcDbSymbolTable
70
1
0
STYLE
5
11
100
AcDbSymbolTableRecord
100
AcDbTextStyleTableRecord
2
STANDARD
70
0
0
ENDTAB
0
TABLE
2
VIEW
5
6
100
AcDbSymbolTable
70
0
0
ENDTAB
0
TABLE
2
UCS
5
7
100
AcDbSymbolTable
70
0
0
ENDTAB
0
TABLE
2
APPID
5
9
100
AcDbSymbolTable
70
2
0
APPID
5
12
100
AcDbSymbolTableRecord
100
AcDbRegAppTableRecord
2
ACAD
70
0
0
ENDTAB
0
TABLE
2
DIMSTYLE
5
A
100
AcDbSymbolTable
70
1
0
ENDTAB
0
TABLE
2
BLOCK_RECORD
5
1
100
AcDbSymbolTable
70
1
0
BLOCK_RECORD
5
1F
100
AcDbSymbolTableRecord
100
AcDbBlockTableRecord
2
*MODEL_SPACE
0
BLOCK_RECORD
5
1B
100
AcDbSymbolTableRecord
100
AcDbBlockTableRecord
2
*PAPER_SPACE
0
ENDTAB
0
ENDSEC
0
SECTION
2
BLOCKS
0
BLOCK
5
20
100
AcDbEntity
100
AcDbBlockBegin
2
*MODEL_SPACE
0
ENDBLK
5
21
100
AcDbEntity
100
AcDbBlockEnd
0
BLOCK
5
1C
100
AcDbEntity
100
AcDbBlockBegin
2
*PAPER_SPACE
0
ENDBLK
5
1D
100
AcDbEntity
100
AcDbBlockEnd
0
ENDSEC
0
SECTION
2
ENTITIES
0
LWPOLYLINE
5
100
100
AcDbEntity
8
0
100
AcDbPolyline
90
54
70
1
43
0.0
10
30.049500000000002
20
320.05000000000001
10
30.049500000000002
20
328.05000000000001
10
52.049900000000008
20
328.05000000000001
10
52.049900000000008
20
320.05000000000001
10
74.050200000000004
20
320.05000000000001
10
74.050200000000004
20
328.05000000000001
10
96.05080000000001
20
328.05000000000001
10
96.05080000000001
20
320.05000000000001
10
118.05
20
320.05000000000001
10
118.05
20
328.05000000000001
10
140.05000000000001
20
328.05000000000001
10
140.05000000000001
20
320.05000000000001
10
162.05000000000001
20
320.05000000000001
10
183.38400000000004
20
320.05000000000001
10
183.38400000000004
20
328.05000000000001
10
196.71599999999998
20
328.05000000000001
10
196.71599999999998
20
320.05000000000001
10
218.05000000000004
20
320.05000000000001
10
218.05000000000004
20
299.24900000000002
10
210.05000000000001
20
299.24900000000002
10
210.05000000000001
20
278.45099999999996
10
218.05000000000004
20
278.45099999999996
10
218.05000000000004
20
257.65100000000007
10
210.05000000000001
20
257.65100000000007
10
210.05000000000001
20
236.85000000000002
10
218.05000000000004
20
236.85000000000002
10
218.05000000000004
20
216.05000000000004
10
196.71599999999998
20
216.05000000000004
10
196.71599999999998
20
208.04900000000004
10
183.38400000000004
20
208.04900000000004
10
183.38400000000004
20
216.05000000000004
10
162.05000000000001
20
216.05000000000004
10
140.05000000000001
20
216.05000000000004
10
140.05000000000001
20
208.04900000000004
10
118.05
20
208.04900000000004
10
118.05
20
216.05000000000004
10
96.05080000000001
20
216.05000000000004
10
96.05080000000001
20
208.04900000000004
10
74.050200000000004
20
208.04900000000004
10
74.050200000000004
20
216.05000000000004
10
52.049900000000008
20
216.05000000000004
10
52.049900000000008
20
208.04900000000004
10
30.049500000000002
20
208.04900000000004
10
30.049500000000002
20
216.05000000000004
10
8.0504899999999999
20
216.05000000000004
10
8.0504899999999999
20
236.85000000000002
10
0.049609400000000005
20
236.85000000000002
10
0.049609400000000005
20
257.65100000000007
10
8.0504899999999999
20
257.65100000000007
10
8.0504899999999999
20
278.45099999999996
10
0.049609400000000248
20
278.45099999999996
10
0.049609400000000005
20
299.24900000000002
10
8.0504899999999999
20
299.24900000000002
10
8.0504899999999999
20
320.05000000000001
0
LINE
5
101
100
AcDbEntity
8
0
100
AcDbLine
10
170.05000000000001
20
278.45099999999996
30
0
11
162.05000000000001
21
278.45099999999996
31
0
0
LINE
5
102
100
AcDbEntity
8
0
100
AcDbLine
10
162.05000000000001
20
299.24900000000002
30
0
11
170.05000000000001
21
299.24900000000002
31
0
0
LINE
5
103
100
AcDbEntity
8
0
100
AcDbLine
10
170.05000000000001
20
299.24900000000002
30
0
11
170.05000000000001
21
278.45099999999996
31
0
0
LINE
5
104
100
AcDbEntity
8
0
100
AcDbLine
10
162.05000000000001
20
97.650700000000015
30
0
11
170.05000000000001
21
97.650700000000015
31
0
0
LINE
5
105
100
AcDbEntity
8
0
100
AcDbLine
10
162.05000000000001
20
320.05000000000001
30
0
11
162.05000000000001
21
299.24900000000002
31
0
0
LINE
5
106
100
AcDbEntity
8
0
100
AcDbLine
10
140.05000000000001
20
168.05000000000004
30
0
11
118.05
21
168.05000000000004
31
0
0
LINE
5
107
100
AcDbEntity
8
0
100
AcDbLine
10
8.0504899999999999
20
181.38299999999998
30
0
11
8.0504899999999999
21
194.71700000000001
31
0
0
LINE
5
108
100
AcDbEntity
8
0
100
AcDbLine
10
162.05000000000001
20
278.45099999999996
30
0
11
162.05000000000001
21
257.65100000000007
31
0
0
LINE
5
109
100
AcDbEntity
8
0
100
AcDbLine
10
118.05
20
160.05000000000001
30
0
11
96.05080000000001
21
160.05000000000001
31
0
0
LINE
5
110
100
AcDbEntity
8
0
100
AcDbLine
10
162.05000000000001
20
139.25
30
0
11
170.05000000000001
21
139.25
31
0
0
LINE
5
111
100
AcDbEntity
8
0
100
AcDbLine
10
30.049500000000002
20
160.05000000000001
30
0
11
0.049609400000001358
21
160.05000000000001
31
0
0
LINE
5
112
100
AcDbEntity
8
0
100
AcDbLine
10
162.05000000000001
20
194.71700000000001
30
0
11
162.05000000000001
21
181.38299999999998
31
0
0
LINE
5
113
100
AcDbEntity
8
0
100
AcDbLine
10
0.049609400000001358
20
160.05000000000001
30
0
11
0.049609400000000005
21
181.38299999999998
31
0
0
LINE
5
114
100
AcDbEntity
8
0
100
AcDbLine
10
162.05000000000001
20
257.65100000000007
30
0
11
170.05000000000001
21
257.65100000000007
31
0
0
LINE
5
115
100
AcDbEntity
8
0
100
AcDbLine
10
162.05000000000001
20
76.850500000000011
30
0
11
162.05000000000001
21
56.05040000000001
31
0
0
LINE
5
116
100
AcDbEntity
8
0
100
AcDbLine
10
170.05000000000001
20
236.85000000000002
30
0
11
162.05000000000001
21
236.85000000000002
31
0
0
LINE
5
117
100
AcDbEntity
8
0
100
AcDbLine
10
170.05000000000001
20
216.05000000000004
30
0
11
170.05000000000001
21
194.71700000000001
31
0
0
LINE
5
118
100
AcDbEntity
8
0
100
AcDbLine
10
30.049500000000002
20
168.05000000000004
30
0
11
30.049500000000002
21
160.05000000000001
31
0
0
LINE
5
119
100
AcDbEntity
8
0
100
AcDbLine
10
162.05000000000001
20
118.44900000000001
30
0
11
162.05000000000001
21
97.650700000000015
31
0
0
LINE
5
120
100
AcDbEntity
8
0
100
AcDbLine
10
96.05080000000001
20
160.05000000000001
30
0
11
96.05080000000001
21
168.05000000000004
31
0
0
LINE
5
121
100
AcDbEntity
8
0
100
AcDbLine
10
162.05000000000001
20
160.05000000000001
30
0
11
162.05000000000001
21
139.25
31
0
0
LINE
5
122
100
AcDbEntity
8
0
100
AcDbLine
10
170.05000000000001
20
181.38299999999998
30
0
11
170.05000000000001
21
160.05000000000001
31
0
0
LINE
5
123
100
AcDbEntity
8
0
100
AcDbLine
10
74.050200000000004
20
168.05000000000004
30
0
11
74.050200000000004
21
160.05000000000001
31
0
0
LINE
5
124
100
AcDbEntity
8
0
100
AcDbLine
10
162.05000000000001
20
56.05040000000001
30
0
11
140.05000000000001
21
56.05040000000001
31
0
0
LINE
5
125
100
AcDbEntity
8
0
100
AcDbLine
10
8.0504899999999999
20
194.71700000000001
30
0
11
0.049609400000000248
21
194.71700000000001
31
0
0
LINE
5
126
100
AcDbEntity
8
0
100
AcDbLine
10
0.049609400000000248
20
194.71700000000001
30
0
11
0.049609400000000005
21
208.04900000000004
31
0
0
LINE
5
127
100
AcDbEntity
8
0
100
AcDbLine
10
140.05000000000001
20
160.05000000000001
30
0
11
140.05000000000001
21
168.05000000000004
31
0
0
LINE
5
128
100
AcDbEntity
8
0
100
AcDbLine
10
0.049609400000000005
20
208.04900000000004
30
0
11
0.049609400000000005
21
216.05000000000004
31
0
0
LINE
5
129
100
AcDbEntity
8
0
100
AcDbLine
10
140.05000000000001
20
56.05040000000001
30
0
11
140.05000000000001
21
48.049400000000006
31
0
0
LINE
5
130
100
AcDbEntity
8
0
100
AcDbLine
10
140.05000000000001
20
48.049400000000006
30
0
11
118.05
21
48.049400000000006
31
0
0
LINE
5
131
100
AcDbEntity
8
0
100
AcDbLine
10
96.05080000000001
20
168.05000000000004
30
0
11
74.050200000000004
21
168.05000000000004
31
0
0
LINE
5
132
100
AcDbEntity
8
0
100
AcDbLine
10
170.05000000000001
20
160.05000000000001
30
0
11
140.05000000000001
21
160.05000000000001
31
0
0
LINE
5
133
100
AcDbEntity
8
0
100
AcDbLine
10
170.05000000000001
20
76.850500000000011
30
0
11
162.05000000000001
21
76.850500000000011
31
0
0
LINE
5
134
100
AcDbEntity
8
0
100
AcDbLine
10
170.05000000000001
20
257.65100000000007
30
0
11
170.05000000000001
21
236.85000000000002
31
0
0
LINE
5
135
100
AcDbEntity
8
0
100
AcDbLine
10
170.05000000000001
20
97.650700000000015
30
0
11
170.05000000000001
21
76.850500000000011
31
0
0
LINE
5
136
100
AcDbEntity
8
0
100
AcDbLine
10
162.05000000000001
20
181.38299999999998
30
0
11
170.05000000000001
21
181.38299999999998
31
0
0
LINE
5
137
100
AcDbEntity
8
0
100
AcDbLine
10
170.05000000000001
20
118.44900000000001
30
0
11
162.05000000000001
21
118.44900000000001
31
0
0
LINE
5
138
100
AcDbEntity
8
0
100
AcDbLine
10
170.05000000000001
20
139.25
30
0
11
170.05000000000001
21
118.44900000000001
31
0
0
LINE
5
139
100
AcDbEntity
8
0
100
AcDbLine
10
118.05
20
168.05000000000004
30
0
11
118.05
21
160.05000000000001
31
0
0
LINE
5
140
100
AcDbEntity
8
0
100
AcDbLine
10
162.05000000000001
20
236.85000000000002
30
0
11
162.05000000000001
21
216.05000000000004
31
0
0
LINE
5
141
100
AcDbEntity
8
0
100
AcDbLine
10
74.050200000000004
20
160.05000000000001
30
0
11
52.049900000000008
21
160.05000000000001
31
0
0
LINE
5
142
100
AcDbEntity
8
0
100
AcDbLine
10
52.049900000000008
20
160.05000000000001
30
0
11
52.049900000000008
21
168.05000000000004
31
0
0
LINE
5
143
100
AcDbEntity
8
0
100
AcDbLine
10
52.049900000000008
20
168.05000000000004
30
0
11
30.049500000000002
21
168.05000000000004
31
0
0
LINE
5
144
100
AcDbEntity
8
0
100
AcDbLine
10
0.049609400000000005
20
216.05000000000004
30
0
11
8.0504899999999999
21
216.05000000000004
31
0
0
LINE
5
145
100
AcDbEntity
8
0
100
AcDbLine
10
170.05000000000001
20
194.71700000000001
30
0
11
162.05000000000001
21
194.71700000000001
31
0
0
LINE
5
146
100
AcDbEntity
8
0
100
AcDbLine
10
0.049609400000000005
20
181.38299999999998
30
0
11
8.0504899999999999
21
181.38299999999998
31
0
0
LINE
5
147
100
AcDbEntity
8
0
100
AcDbLine
10
8.0504899999999999
20
97.650700000000015
30
0
11
8.0504899999999999
21
118.44900000000001
31
0
0
LINE
5
148
100
AcDbEntity
8
0
100
AcDbLine
10
0.049609400000000005
20
76.850500000000011
30
0
11
0.049609400000000005
21
97.650700000000015
31
0
0
LINE
5
149
100
AcDbEntity
8
0
100
AcDbLine
10
30.049500000000002
20
0.049609400000000005
30
0
11
0.049609400000001358
21
0.049609400000000005
31
0
0
LINE
5
150
100
AcDbEntity
8
0
100
AcDbLine
10
170.05000000000001
20
56.05040000000001
30
0
11
170.05000000000001
21
34.71690000000001
31
0
0
LINE
5
151
100
AcDbEntity
8
0
100
AcDbLine
10
0.049609400000000005
20
21.383000000000006
30
0
11
8.0504899999999999
21
21.383000000000006
31
0
0
LINE
5
152
100
AcDbEntity
8
0
100
AcDbLine
10
118.05
20
0.049609400000000005
30
0
11
96.05080000000001
21
0.049609400000000005
31
0
0
LINE
5
153
100
AcDbEntity
8
0
100
AcDbLine
10
0.049609400000000005
20
118.44900000000001
30
0
11
0.049609400000000005
21
139.25
31
0
0
LINE
5
154
100
AcDbEntity
8
0
100
AcDbLine
10
8.0504899999999999
20
56.05040000000001
30
0
11
8.0504899999999999
21
76.850500000000011
31
0
0
LINE
5
155
100
AcDbEntity
8
0
100
AcDbLine
10
52.049900000000008
20
8.0504899999999999
30
0
11
30.049500000000002
21
8.0504899999999999
31
0
0
LINE
5
156
100
AcDbEntity
8
0
100
AcDbLine
10
170.05000000000001
20
0.049609400000000005
30
0
11
140.05000000000001
21
0.049609400000000005
31
0
0
LINE
5
157
100
AcDbEntity
8
0
100
AcDbLine
10
74.050200000000004
20
48.049400000000006
30
0
11
74.050200000000004
21
56.05040000000001
31
0
0
LINE
5
158
100
AcDbEntity
8
0
100
AcDbLine
10
118.05
20
48.049400000000006
30
0
11
118.05
21
56.05040000000001
31
0
0
LINE
5
159
100
AcDbEntity
8
0
100
AcDbLine
10
8.0504899999999999
20
21.383000000000006
30
0
11
8.0504899999999999
21
34.71690000000001
31
0
0
LINE
5
160
100
AcDbEntity
8
0
100
AcDbLine
10
8.0504899999999999
20
34.71690000000001
30
0
11
0.049609400000000248
21
34.71690000000001
31
0
0
LINE
5
161
100
AcDbEntity
8
0
100
AcDbLine
10
52.049900000000008
20
56.05040000000001
30
0
11
52.049900000000008
21
48.049400000000006
31
0
0
LINE
5
162
100
AcDbEntity
8
0
100
AcDbLine
10
170.05000000000001
20
160.05000000000001
30
0
11
183.38400000000004
21
160.05000000000001
31
0
0
LINE
5
163
100
AcDbEntity
8
0
100
AcDbLine
10
140.05000000000001
20
0.049609400000000005
30
0
11
140.05000000000001
21
8.0504899999999999
31
0
0
LINE
5
164
100
AcDbEntity
8
0
100
AcDbLine
10
118.05
20
8.0504899999999999
30
0
11
118.05
21
0.049609400000000005
31
0
0
LINE
5
165
100
AcDbEntity
8
0
100
AcDbLine
10
140.05000000000001
20
8.0504899999999999
30
0
11
118.05
21
8.0504899999999999
31
0
0
LINE
5
166
100
AcDbEntity
8
0
100
AcDbLine
10
52.049900000000008
20
0.049609400000000005
30
0
11
52.049900000000008
21
8.0504899999999999
31
0
0
LINE
5
167
100
AcDbEntity
8
0
100
AcDbLine
10
162.05000000000001
20
21.383000000000006
30
0
11
170.05000000000001
21
21.383000000000006
31
0
0
LINE
5
168
100
AcDbEntity
8
0
100
AcDbLine
10
8.0504899999999999
20
118.44900000000001
30
0
11
0.049609400000000005
21
118.44900000000001
31
0
0
LINE
5
169
100
AcDbEntity
8
0
100
AcDbLine
10
96.05080000000001
20
8.0504899999999999
30
0
11
74.050200000000004
21
8.0504899999999999
31
0
0
LINE
5
170
100
AcDbEntity
8
0
100
AcDbLine
10
0.049609400000000005
20
56.05040000000001
30
0
11
8.0504899999999999
21
56.05040000000001
31
0
0
LINE
5
171
100
AcDbEntity
8
0
100
AcDbLine
10
8.0504899999999999
20
139.25
30
0
11
8.0504899999999999
21
160.05000000000001
31
0
0
LINE
5
172
100
AcDbEntity
8
0
100
AcDbLine
10
170.05000000000001
20
34.71690000000001
30
0
11
162.05000000000001
21
34.71690000000001
31
0
0
LINE
5
173
100
AcDbEntity
8
0
100
AcDbLine
10
0.049609400000001358
20
0.049609400000000005
30
0
11
0.049609400000000005
21
21.383000000000006
31
0
0
LINE
5
174
100
AcDbEntity
8
0
100
AcDbLine
10
30.049500000000002
20
8.0504899999999999
30
0
11
30.049500000000002
21
0.049609400000000005
31
0
0
LINE
5
175
100
AcDbEntity
8
0
100
AcDbLine
10
96.05080000000001
20
56.05040000000001
30
0
11
96.05080000000001
21
48.049400000000006
31
0
0
LINE
5
176
100
AcDbEntity
8
0
100
AcDbLine
10
74.050200000000004
20
56.05040000000001
30
0
11
52.049900000000008
21
56.05040000000001
31
0
0
LINE
5
177
100
AcDbEntity
8
0
100
AcDbLine
10
0.049609400000000005
20
48.049400000000006
30
0
11
0.049609400000000005
21
56.05040000000001
31
0
0
LINE
5
178
100
AcDbEntity
8
0
100
AcDbLine
10
170.05000000000001
20
21.383000000000006
30
0
11
170.05000000000001
21
0.049609400000000005
31
0
0
LINE
5
179
100
AcDbEntity
8
0
100
AcDbLine
10
118.05
20
56.05040000000001
30
0
11
96.05080000000001
21
56.05040000000001
31
0
0
LINE
5
180
100
AcDbEntity
8
0
100
AcDbLine
10
0.049609400000000005
20
97.650700000000015
30
0
11
8.0504899999999999
21
97.650700000000015
31
0
0
LINE
5
181
100
AcDbEntity
8
0
100
AcDbLine
10
0.049609400000000248
20
34.71690000000001
30
0
11
0.049609400000000005
21
48.049400000000006
31
0
0
LINE
5
182
100
AcDbEntity
8
0
100
AcDbLine
10
30.049500000000002
20
56.05040000000001
30
0
11
8.0504899999999999
21
56.05040000000001
31
0
0
LINE
5
183
100
AcDbEntity
8
0
100
AcDbLine
10
30.049500000000002
20
48.049400000000006
30
0
11
30.049500000000002
21
56.05040000000001
31
0
0
LINE
5
184
100
AcDbEntity
8
0
100
AcDbLine
10
8.0504899999999999
20
76.850500000000011
30
0
11
0.049609400000000005
21
76.850500000000011
31
0
0
LINE
5
185
100
AcDbEntity
8
0
100
AcDbLine
10
96.05080000000001
20
0.049609400000000005
30
0
11
96.05080000000001
21
8.0504899999999999
31
0
0
LINE
5
186
100
AcDbEntity
8
0
100
AcDbLine
10
162.05000000000001
20
34.71690000000001
30
0
11
162.05000000000001
21
21.383000000000006
31
0
0
LINE
5
187
100
AcDbEntity
8
0
100
AcDbLine
10
0.049609400000000005
20
139.25
30
0
11
8.0504899999999999
21
139.25
31
0
0
LINE
5
188
100
AcDbEntity
8
0
100
AcDbLine
10
74.050200000000004
20
0.049609400000000005
30
0
11
52.049900000000008
21
0.049609400000000005
31
0
0
LINE
5
189
100
AcDbEntity
8
0
100
AcDbLine
10
74.050200000000004
20
8.0504899999999999
30
0
11
74.050200000000004
21
0.049609400000000005
31
0
0
LINE
5
190
100
AcDbEntity
8
0
100
AcDbLine
10
218.05000000000004
20
76.850500000000011
30
0
11
218.05000000000004
21
56.05040000000001
31
0
0
LINE
5
191
100
AcDbEntity
8
0
100
AcDbLine
10
218.05000000000004
20
118.44900000000001
30
0
11
218.05000000000004
21
97.650700000000015
31
0
0
LINE
5
192
100
AcDbEntity
8
0
100
AcDbLine
10
218.05000000000004
20
97.650700000000015
30
0
11
210.05000000000001
21
97.650700000000015
31
0
0
LINE
5
193
100
AcDbEntity
8
0
100
AcDbLine
10
196.71599999999998
20
48.049400000000006
30
0
11
183.38400000000004
21
48.049400000000006
31
0
0
LINE
5
194
100
AcDbEntity
8
0
100
AcDbLine
10
52.049900000000008
20
48.049400000000006
30
0
11
30.049500000000002
21
48.049400000000006
31
0
0
LINE
5
195
100
AcDbEntity
8
0
100
AcDbLine
10
210.05000000000001
20
118.44900000000001
30
0
11
218.05000000000004
21
118.44900000000001
31
0
0
LINE
5
196
100
AcDbEntity
8
0
100
AcDbLine
10
183.38400000000004
20
168.05000000000004
30
0
11
196.71599999999998
21
168.05000000000004
31
0
0
LINE
5
197
100
AcDbEntity
8
0
100
AcDbLine
10
196.71599999999998
20
160.05000000000001
30
0
11
218.05000000000004
21
160.05000000000001
31
0
0
LINE
5
198
100
AcDbEntity
8
0
100
AcDbLine
10
210.05000000000001
20
139.25
30
0
11
210.05000000000001
21
118.44900000000001
31
0
0
LINE
5
199
100
AcDbEntity
8
0
100
AcDbLine
10
218.05000000000004
20
160.05000000000001
30
0
11
218.05000000000004
21
139.25
31
0
0
LINE
5
200
100
AcDbEntity
8
0
100
AcDbLine
10
218.05000000000004
20
139.25
30
0
11
210.05000000000001
21
139.25
31
0
0
LINE
5
201
100
AcDbEntity
8
0
100
AcDbLine
10
196.71599999999998
20
56.05040000000001
30
0
11
196.71599999999998
21
48.049400000000006
31
0
0
LINE
5
202
100
AcDbEntity
8
0
100
AcDbLine
10
183.38400000000004
20
56.05040000000001
30
0
11
162.05000000000001
21
56.05040000000001
31
0
0
LINE
5
203
100
AcDbEntity
8
0
100
AcDbLine
10
210.05000000000001
20
97.650700000000015
30
0
11
210.05000000000001
21
76.850500000000011
31
0
0
LINE
5
204
100
AcDbEntity
8
0
100
AcDbLine
10
183.38400000000004
20
160.05000000000001
30
0
11
183.38400000000004
21
168.05000000000004
31
0
0
LINE
5
205
100
AcDbEntity
8
0
100
AcDbLine
10
183.38400000000004
20
48.049400000000006
30
0
11
183.38400000000004
21
56.05040000000001
31
0
0
LINE
5
206
100
AcDbEntity
8
0
100
AcDbLine
10
96.05080000000001
20
48.049400000000006
30
0
11
74.050200000000004
21
48.049400000000006
31
0
0
LINE
5
207
100
AcDbEntity
8
0
100
AcDbLine
10
218.05000000000004
20
56.05040000000001
30
0
11
196.71599999999998
21
56.05040000000001
31
0
0
LINE
5
208
100
AcDbEntity
8
0
100
AcDbLine
10
210.05000000000001
20
76.850500000000011
30
0
11
218.05000000000004
21
76.850500000000011
31
0
0
LINE
5
209
100
AcDbEntity
8
0
100
AcDbLine
10
196.71599999999998
20
168.05000000000004
30
0
11
196.71599999999998
21
160.05000000000001
31
0
0
LWPOLYLINE
5
210
100
AcDbEntity
8
0
100
AcDbPolyline
90
4
70
1
43
0.0
10
146.05000000000001
20
144.05000000000004
10
121.05000000000003
20
144.05000000000004
10
121.05000000000003
20
72.05000000000004
10
146.05000000000001
20
72.05000000000004
0
LWPOLYLINE
5
211
100
AcDbEntity
8
0
100
AcDbPolyline
90
8
70
1
43
0.0
10
82.050489999999968
20
131.55000000000004
10
31.050490000000003
20
131.55000000000004
42
0.41421356237309681
10
28.05049
20
128.55000000000001
10
28.05049
20
87.55000000000004
42
0.41421356237309115
10
31.050490000000003
20
84.55000000000004
10
82.050489999999968
20
84.55000000000004
42
0.41421356237309503
10
85.050489999999982
20
87.55000000000004
10
85.050489999999982
20
128.55000000000001
42
0.41421356237309503
0
CIRCLE
5
212
100
AcDbEntity
8
0
100
AcDbCircle
10
103.05000000000001
20
139.05000000000004
30
0
40
2.5
210
0
220
0
230
1
0
CIRCLE
5
213
100
AcDbEntity
8
0
100
AcDbCircle
10
103.05000000000015
20
119.04999999999988
30
0
40
2.5
210
0
220
0
230
1
0
CIRCLE
5
214
100
AcDbEntity
8
0
100
AcDbCircle
10
103.05000000000008
20
129.04999999999995
30
0
40
2.5
210
0
220
0
230
1
0
CIRCLE
5
215
100
AcDbEntity
8
0
100
AcDbCircle
10
103.05000000000042
20
97.050000000000054
30
0
40
6.0000000000000009
210
0
220
0
230
1
0
CIRCLE
5
216
100
AcDbEntity
8
0
100
AcDbCircle
10
103.05000000000005
20
82.05000000000004
30
0
40
6.0000000000000009
210
0
220
0
230
1
0
LINE
5
217
100
AcDbEntity
8
0
100
AcDbLine
10
103.05000000000001
20
139.05000000000004
30
0
11
103.05000000000015
21
119.04999999999988
31
0
0
LINE
5
218
100
AcDbEntity
8
0
100
AcDbLine
10
103.05000000000042
20
97.050000000000054
30
0
11
103.05000000000005
21
82.05000000000004
31
0
0
ENDSEC
0
SECTION
2
OBJECTS
0
DICTIONARY
5
C
100
AcDbDictionary
3
ACAD_GROUP
350
D
3
ACAD_MLINESTYLE
350
17
0
DICTIONARY
5
D
100
AcDbDictionary
0
DICTIONARY
5
1A
330
C
100
AcDbDictionary
0
DICTIONARY
5
17
100
AcDbDictionary
0
ENDSEC
0
EOF
